# xmcd
#
# Track frame offsets: 
#        150
#        20789
#        39085
#        58061
#        78627
#        98971
#        118689
#        133866
#        153901
#        169485
#        189847
#
# Disc length: 2774 seconds
#
# Revision: 4
# Processed by: cddbd v1.5.2PL0 Copyright (c) Steve Scherf et al.
# Submitted via: ExactAudioCopyFreeDBPlugin 1.0
#
DISCID=910ad40b
DTITLE=The Isley Brothers - Baby Makin' Music
DYEAR=2006
DGENRE=Rhythm and Blues
TTITLE0=You're My Star
TTITLE1=Blast Off (ft R. Kelly)
TTITLE2=Just Came Here to Chill
TTITLE3=Gotta Be with You
TTITLE4=Pretty Woman
TTITLE5=Forever Mackin'
TTITLE6=Show Me
TTITLE7=Give it to You
TTITLE8=Beautiful
TTITLE9=Heaven Hooked Us Up
TTITLE10=You Help Me Write This Song
EXTD=YEAR: 2006
EXTT0=
EXTT1=
EXTT2=
EXTT3=
EXTT4=
EXTT5=
EXTT6=
EXTT7=
EXTT8=
EXTT9=
EXTT10=
PLAYORDER=
